<?xml version="1.0" encoding="UTF-8"?>
<svg width="224px" height="224px" viewBox="0 0 224 224" version="1.1" xmlns="http://www.w3.org/2000/svg" xmlns:xlink="http://www.w3.org/1999/xlink">
    <title>error-no-results-search</title>
    <defs>
        <circle id="path-1" cx="112" cy="112" r="112"></circle>
        <path d="M70.3052886,1.56862745 C69.8005615,7.34375744 69.548198,12.0591915 69.548198,15.7149297 C69.548198,22.3280004 78.4152858,28.2443479 96.1494615,33.4639721 C104.858071,36.0271388 111.203999,43.5297073 112.287027,52.5428505 L114.195215,68.4230978 L114.195215,68.4230978 C108.762706,69.4215986 105.298942,72.299934 103.803922,77.0581039 C102.308902,81.8162739 100.361189,91.8162739 97.9607843,107.058104 L103.686275,155.685555 L77,176.077712 L37.7843137,176.077712 L15.0980392,155.685555 L18.3921569,107.058104 C16.1616866,90.9666007 14.3852563,80.8100218 13.0628658,76.5883672 C11.7404753,72.3667127 7.38618669,68.9782895 0,66.4230978 L2.63288297,51.5619532 C4.14583994,43.0221708 10.389953,36.0894266 18.7255101,33.6945551 C36.9607629,28.4554225 46.0783892,22.57603 46.0783892,16.0563775 C46.0783892,12.4183048 45.8260257,7.31854251 45.3212986,0.757090604 L70.3052886,1.56862745 Z" id="path-3"></path>
        <path d="M0,0 C1.89272651,0.325470802 3.78545302,0.488206202 5.67817953,0.488206202 C7.57090604,0.488206202 9.46363255,0.325470802 11.3563591,0 L11.3563591,2.49059361 C9.46363255,4.47646016 7.57090604,5.46939343 5.67817953,5.46939343 C3.78545302,5.46939343 1.89272651,4.47646016 0,2.49059361 L0,0 Z" id="path-5"></path>
        <path d="M12.5954,0 L31.8288559,25.2346814 C38.6077205,27.5169013 45.2684639,28.5171055 51.8110863,28.2352941 C58.3537086,27.9534827 64.8896563,26.3848552 71.4189294,23.5294118 L86.3208902,0 C95.7326549,44.9673203 100.438537,78.9542484 100.438537,101.960784 C100.438537,124.96732 95.2097791,189.281046 84.7522627,294.901961 L69.0659882,294.901961 L54.9483412,92.5490196 L50.2424588,92.5490196 L37.6934392,294.901961 L20.4385372,294.901961 C7.35144653,187.216332 0.554060912,122.902606 0.0463803743,101.960784 C-0.461300163,81.0189622 3.72170637,47.032034 12.5954,0 Z" id="path-7"></path>
        <circle id="path-9" cx="7.07142857" cy="7.07142857" r="7.07142857"></circle>
        <circle id="path-11" cx="7.07142857" cy="7.07142857" r="7.07142857"></circle>
    </defs>
    <g id="Design" stroke="none" stroke-width="1" fill="none" fill-rule="evenodd">
        <g id="Oval-2">
            <mask id="mask-2" fill="white">
                <use xlink:href="#path-1"></use>
            </mask>
            <use id="Oval" fill="#E6F1FC" xlink:href="#path-1"></use>
            <g id="Group-79" mask="url(#mask-2)">
                <g transform="translate(53.000000, 12.000000)" id="Group-78">
                    <g transform="translate(0.953548, 0.000000)">
                        <g id="Group-22">
                            <g id="Group-76" transform="translate(27.853211, 0.000000)">
                                <path d="M29.9600826,0 C46.4762016,-3.03396184e-15 59.8651614,13.3889599 59.8651614,29.9050789 L59.8651614,93.8792349 L59.8651614,93.8792349 L0.0550037014,93.8792349 L0.0550037014,29.9050789 C0.0550037014,13.3889599 13.4439636,3.03396184e-15 29.9600826,0 Z" id="Rectangle-Copy-65" fill="#000000"></path>
                                <path d="M29.9600826,9.13953349 C40.6223872,9.13953349 49.265893,17.7830392 49.265893,28.4453439 L49.265893,48.8867902 C49.265893,59.5490949 40.6223872,68.1926006 29.9600826,68.1926006 C19.2977779,68.1926006 10.6542722,59.5490949 10.6542722,48.8867902 L10.6542722,28.4453439 C10.6542722,17.7830392 19.2977779,9.13953349 29.9600826,9.13953349 Z" id="Rectangle-Copy-66" fill="#A36B2A"></path>
                                <rect id="Rectangle-Copy-67" fill="#DBA358" x="43.2091681" y="36.3947953" width="11.3563591" height="11.3563591" rx="4.54254363"></rect>
                                <rect id="Rectangle-Copy-68" fill="#DBA358" x="5.35463793" y="36.3947953" width="11.3563591" height="11.3563591" rx="4.54254363"></rect>
                                <path d="M10.6542722,9.03064101 L29.5815373,2.21682557 L49.265893,9.03064101 L51.5371648,15.0873658 L49.265893,18.9511386 C43.7673495,20.4682741 37.9629882,23.3399971 31.8528091,27.5663075 C25.74263,31.792618 18.676451,34.9515133 10.6542722,37.0429934 L7.62590974,22.6582719 L10.6542722,9.03064101 Z" id="Rectangle-Copy-69" fill="#000000"></path>
                                <circle id="Oval-Copy-15" fill="#000000" cx="40.1808057" cy="41.3775188" r="2.27127181"></circle>
                            </g>
                            <g id="Path-2-Copy-6" transform="translate(0.000000, 56.079151)">
                                <mask id="mask-4" fill="white">
                                    <use xlink:href="#path-3"></use>
                                </mask>
                                <use id="Path" fill="#A36B2A" xlink:href="#path-3"></use>
                                <path d="M24.7237447,20.2506157 C32.8951405,31.9738312 44.0511719,37.7686954 58.1918389,37.6352084 C72.3325059,37.5017214 83.2361737,31.7068572 90.9028425,20.2506157 L110.431091,33.0411221 L120.195215,106.558945 L98.9607843,106.558945 L94.254902,155.685555 L78.5686275,174.509084 L39.3529412,174.509084 L22.0980392,155.685555 L17.3921569,106.558945 L-4.56862745,106.558945 L5.19549659,34.0175345 L24.7237447,20.2506157 Z" id="Rectangle" fill="#041E42" mask="url(#mask-4)"></path>
                                <path d="M33.5114563,20.3477608 C42.5865846,66.6809003 47.9462401,96.4614786 49.590423,109.689496 C51.2346058,122.917513 51.4822426,149.752801 50.3333333,190.195359 L9.54901961,185.489476 L17.3921569,111.763986 C19.1616866,103.201895 20.2074383,95.0188883 20.5294118,87.2149667 C20.8513853,79.4110451 20.7848776,58.2611243 20.3298889,23.7652042 L33.5114563,20.3477608 Z" id="Path-4" fill="#0071DC" mask="url(#mask-4)"></path>
                                <path d="M31.7171107,56.3753185 C31.1558619,56.3753185 30.7101644,56.6858962 30.7101644,57.0618585 L31.056818,60.89504 C31.0898326,61.1238867 31.3787107,61.3036948 31.7171107,61.3036948 C32.0637643,61.3036948 32.3526424,61.1238867 32.3939107,60.89504 L32.7323106,57.0618585 C32.7323106,56.6858962 32.2866131,56.3753185 31.7171107,56.3753185 Z M26.4265157,59.513787 C26.0963694,59.3258058 25.6011499,59.5546525 25.3205255,60.0368651 C25.0316474,60.5190777 25.0811694,61.0585019 25.4195694,61.2464831 L28.9356278,62.872929 C29.1584766,62.9464868 29.4556083,62.791198 29.6289351,62.4969666 C29.802262,62.2027352 29.7857546,61.8676383 29.6041742,61.7205226 L26.4265157,59.513787 Z M38.0311593,61.2464831 C38.3613056,61.0585019 38.4108276,60.5190777 38.1302032,60.0368651 C37.8413251,59.5546525 37.3461056,59.3258058 37.0159593,59.513787 L33.8383009,61.7205226 C33.6567204,61.8676383 33.6402131,62.2027352 33.8135399,62.4969666 C33.9868667,62.791198 34.2839984,62.9464868 34.5068472,62.872929 L38.0311593,61.2464831 Z M25.4195694,66.142167 C25.0811694,66.3383212 25.0316474,66.8777455 25.3205255,67.3599581 C25.6011499,67.8421707 26.0963694,68.0710174 26.4265157,67.8830362 L29.6041742,65.6763005 C29.7857546,65.5210117 29.802262,65.1859149 29.6289351,64.8916834 C29.4556083,64.597452 29.1584766,64.4421632 28.9356278,64.5238942 L25.4195694,66.142167 Z M34.5068472,64.5238942 C34.2839984,64.4421632 33.9868667,64.597452 33.8135399,64.8916834 C33.6402131,65.1859149 33.6567204,65.5210117 33.8383009,65.6763005 L37.0159593,67.8830362 C37.3461056,68.0710174 37.8413251,67.8421707 38.1302032,67.3599581 C38.4108276,66.8777455 38.3613056,66.3383212 38.0311593,66.142167 L34.5068472,64.5238942 Z M31.7253643,66.0931284 C31.3787107,66.0931284 31.0898326,66.2647634 31.056818,66.49361 L30.7101644,70.3267915 C30.7101644,70.710927 31.1558619,71.0215046 31.7171107,71.0215046 C32.2866131,71.0215046 32.7323106,70.710927 32.7323106,70.3267915 L32.3939107,66.49361 C32.3526424,66.2647634 32.0637643,66.0931284 31.7253643,66.0931284 Z" id="🎨Color" fill="#FEBC11" mask="url(#mask-4)"></path>
                                <rect id="Rectangle" fill="#D5D6D8" mask="url(#mask-4)" x="25.6433234" y="74.2820484" width="14.1579799" height="5.37026822" rx="0.976412405"></rect>
                                <path d="M82.3320766,20.3477608 C75.0253688,66.3383771 70.7114649,96.1189554 69.3903648,109.689496 C68.0692647,123.260036 67.9914307,138.592056 69.1568627,155.685555 L70.7254902,190.195359 L115.235294,190.195359 L98.9607843,111.763986 C97.0178958,103.868561 95.9035186,95.5169339 95.6176529,86.7091037 C95.3317871,77.9012735 95.2971175,56.9199736 95.513644,23.7652042 L82.3320766,20.3477608 Z" id="Path-4" fill="#0071DC" mask="url(#mask-4)"></path>
                            </g>
                            <g id="Group-18" transform="translate(45.321299, 39.106247)">
                                <g id="Group-16" transform="translate(6.813815, 14.307936)">
                                    <mask id="mask-6" fill="white">
                                        <use xlink:href="#path-5"></use>
                                    </mask>
                                    <use id="Rectangle-Copy-64" fill="#AA3A1D" xlink:href="#path-5"></use>
                                </g>
                                <circle id="Oval-Copy-16" fill="#000000" cx="2.27127181" cy="2.27127181" r="2.27127181"></circle>
                            </g>
                        </g>
                        <g id="Group-75" transform="translate(7.934012, 199.215686)">
                            <mask id="mask-8" fill="white">
                                <use xlink:href="#path-7"></use>
                            </mask>
                            <use id="Path-47" fill="#515357" xlink:href="#path-7"></use>
                            <path d="M25.5774445,-116.078431 C34.6525728,-69.7452919 40.0122284,-39.9647136 41.6564112,-26.7366964 C43.300594,-13.5086791 43.5482308,13.3266085 42.3993216,53.7691666 L1.61500783,49.0632843 L9.45814508,-24.6622059 C11.5496483,-29.8909641 12.5954,-34.0739706 12.5954,-37.2112255 C12.5954,-40.3484804 12.5288923,-65.4984012 12.3958771,-112.660988 L25.5774445,-116.078431 Z" id="Path-4" fill="#0071DC" mask="url(#mask-8)"></path>
                            <path d="M74.3980648,-119.215686 C67.091357,-73.22507 62.7774531,-43.4444917 61.456353,-29.8739513 C60.1352529,-16.3034108 60.0574189,-0.971391135 61.222851,16.1221078 L62.7914784,53.7691666 L97.3012823,50.6319117 L91.0267725,-27.7994608 C88.9352693,-31.9824674 87.8208921,-36.3340949 87.6836411,-40.8543434 C87.54639,-45.3745919 87.5117204,-70.3558918 87.5796322,-115.798243 L74.3980648,-119.215686 Z" id="Path-4" fill="#0071DC" mask="url(#mask-8)"></path>
                        </g>
                    </g>
                </g>
            </g>
            <g id="Group-80" mask="url(#mask-2)">
                <g transform="translate(27.000000, 40.000000)">
                    <g id="Group-40">
                        <path d="M16.6309524,110 C23.2563861,107.867856 27.8397194,105.248809 30.3809524,102.142857 C34.1928018,97.48393 34.8175997,95.5059198 34.3095238,88.3928571 C33.9708065,83.6508154 32.0065208,79.067482 28.4166667,74.6428571 L6.80952381,92.3214286 L16.6309524,110 Z" id="Path-27" fill="#855823"></path>
                        <path d="M12.702381,56.9642857 C16.6309524,59.5833333 20.5595238,62.8571429 24.4880952,66.7857143 C28.4166667,70.7142857 32.3452381,75.952381 36.2738095,82.5 C27.2930381,79.6950572 21.4001809,79.6950572 18.5952381,82.5 C15.7902952,85.3049428 15.1355333,91.8525619 16.6309524,102.142857 L10.7380952,96.25 L12.702381,56.9642857 Z" id="Rectangle" fill="#041E42" transform="translate(23.505952, 79.553571) scale(-1, 1) translate(-23.505952, -79.553571) "></path>
                        <path d="M53.952381,5.76190476 C57.75,0.654761905 63.7318494,0 69.6666667,0 C73.6232115,0 77.5517829,1.30952381 81.452381,3.92857143 L74.25,15.3214286 C79.1388889,18.9880952 80.1865079,22.0873016 77.3928571,24.6190476 C73.202381,28.4166667 54.0833333,21.7380952 51.9880952,23.5714286 C49.8928571,25.4047619 37.9870874,69.8000826 30.3809524,88.3928571 C25.3101957,100.78804 20.7268623,107.990421 16.6309524,110 C11.2338529,109.53349 7.30528151,108.223967 4.8452381,106.071429 C1.15517297,102.842622 -1.49025237e-12,99.6547619 0.916666667,93.5 C1.83333333,87.3452381 6.80952381,78.5714286 12.702381,68.75 C18.5952381,58.9285714 50.1547619,10.8690476 53.952381,5.76190476 Z" id="Path-26" fill="#A36B2A"></path>
                    </g>
                    <g id="Group-33" transform="translate(126.833333, 55.000000) scale(-1, 1) translate(-126.833333, -55.000000) translate(86.833333, 0.000000)">
                        <path d="M16.6309524,110 C23.2563861,107.867856 27.8397194,105.248809 30.3809524,102.142857 C34.1928018,97.48393 34.8175997,95.5059198 34.3095238,88.3928571 C33.9708065,83.6508154 32.0065208,79.067482 28.4166667,74.6428571 L6.80952381,92.3214286 L16.6309524,110 Z" id="Path-27" fill="#855823"></path>
                        <path d="M12.702381,56.9642857 C16.6309524,59.5833333 20.5595238,62.8571429 24.4880952,66.7857143 C28.4166667,70.7142857 32.3452381,75.952381 36.2738095,82.5 C27.2930381,79.6950572 21.4001809,79.6950572 18.5952381,82.5 C15.7902952,85.3049428 15.1355333,91.8525619 16.6309524,102.142857 L10.7380952,96.25 L12.702381,56.9642857 Z" id="Rectangle" fill="#041E42" transform="translate(23.505952, 79.553571) scale(-1, 1) translate(-23.505952, -79.553571) "></path>
                        <path d="M53.952381,4.8452381 C58.4047619,-0.130952381 64.684622,-0.000652393928 69.6666667,-0.000652393928 C72.9880298,-0.000652393928 76.2618393,1.30908888 79.4880952,3.92857143 L73.5952381,15.7142857 C77.4365079,21.1269841 77.4365079,24.4007937 73.5952381,25.5357143 C69.7539683,26.6706349 62.5515873,26.015873 51.9880952,23.5714286 C42.65409,54.3905312 35.4517091,75.9976741 30.3809524,88.3928571 C25.3101957,100.78804 20.7268623,107.990421 16.6309524,110 C11.2338529,109.53349 7.30528151,108.223967 4.8452381,106.071429 C1.15517297,102.842622 -3.43725048e-12,98.7380952 0.916666667,92.5833333 C1.83333333,86.4285714 6.80952381,78.5714286 12.702381,68.75 C18.5952381,58.9285714 49.5,9.82142857 53.952381,4.8452381 Z" id="Path-26" fill="#A36B2A"></path>
                    </g>
                    <g id="Group-37" transform="translate(55.000000, 3.000000)">
                        <circle id="Oval" fill="#000000" cx="18.5" cy="9.42857143" r="9.42857143"></circle>
                        <circle id="Oval" fill="#000000" cx="40.4285714" cy="9.42857143" r="9.42857143"></circle>
                        <rect id="Rectangle" fill="#000000" x="12" y="0" width="36" height="6"></rect>
                        <polygon id="Rectangle" fill="#000000" points="18.8571429 0 40.0714286 0 37.7142857 9.42857143 21.2142857 9.42857143"></polygon>
                        <circle id="Oval" fill="#3A3B3E" cx="29.4642857" cy="5.89285714" r="3.53571429"></circle>
                        <circle id="Oval" fill="#000000" cx="11.7857143" cy="11.7857143" r="11.7857143"></circle>
                        <g id="Group-35" transform="translate(4.714286, 4.714286)">
                            <mask id="mask-10" fill="white">
                                <use xlink:href="#path-9"></use>
                            </mask>
                            <use id="Oval" fill="#99C6F1" xlink:href="#path-9"></use>
                            <rect id="Rectangle" fill="#CCE3F8" mask="url(#mask-10)" x="-7.07142857" y="-4.71428571" width="28.2857143" height="11.7857143"></rect>
                        </g>
                        <circle id="Oval" fill="#000000" cx="47.1428571" cy="11.7857143" r="11.7857143"></circle>
                        <circle id="Oval" stroke="#3A3B3E" stroke-width="1.17857143" cx="11.7857143" cy="11.7857143" r="8.83928571"></circle>
                        <g id="Group-35" transform="translate(40.071429, 4.714286)">
                            <mask id="mask-12" fill="white">
                                <use xlink:href="#path-11"></use>
                            </mask>
                            <use id="Oval" fill="#99C6F1" xlink:href="#path-11"></use>
                            <rect id="Rectangle" fill="#CCE3F8" mask="url(#mask-12)" x="-7.07142857" y="-4.71428571" width="28.2857143" height="11.7857143"></rect>
                        </g>
                        <circle id="Oval" stroke="#3A3B3E" stroke-width="1.17857143" cx="47.1428571" cy="11.7857143" r="8.83928571"></circle>
                    </g>
                </g>
            </g>
        </g>
    </g>
</svg>
